<svg width="150" height="28" viewBox="0 0 150 28" fill="none" xmlns="http://www.w3.org/2000/svg">
<path d="M26.2243 11.0215L19.0296 9.97589L15.8133 3.45558C15.7255 3.27706 15.581 3.13254 15.4024 3.04469C14.9547 2.82367 14.4106 3.00786 14.1868 3.45558L10.9706 9.97589L3.77582 11.0215C3.57746 11.0499 3.39611 11.1434 3.25725 11.2851C3.08939 11.4576 2.99689 11.6897 3.00008 11.9304C3.00327 12.1711 3.10188 12.4007 3.27426 12.5687L8.47974 17.6439L7.24992 24.8102C7.22108 24.977 7.23953 25.1484 7.30317 25.3052C7.36681 25.4619 7.47311 25.5977 7.60999 25.6971C7.74688 25.7965 7.90889 25.8556 8.07764 25.8676C8.24639 25.8797 8.41514 25.8442 8.56475 25.7652L15.0001 22.3818L21.4354 25.7652C21.6111 25.8587 21.8151 25.8899 22.0106 25.8559C22.5037 25.7709 22.8352 25.3033 22.7502 24.8102L21.5204 17.6439L26.7259 12.5687C26.8675 12.4299 26.9611 12.2485 26.9894 12.0502C27.0659 11.5543 26.7202 11.0952 26.2243 11.0215Z" fill="#230A06"/>
<path d="M56.2243 11.0215L49.0296 9.97589L45.8133 3.45558C45.7255 3.27706 45.581 3.13254 45.4024 3.04469C44.9547 2.82367 44.4106 3.00786 44.1868 3.45558L40.9706 9.97589L33.7758 11.0215C33.5775 11.0499 33.3961 11.1434 33.2573 11.2851C33.0894 11.4576 32.9969 11.6897 33.0001 11.9304C33.0033 12.1711 33.1019 12.4007 33.2743 12.5687L38.4797 17.6439L37.2499 24.8102C37.2211 24.977 37.2395 25.1484 37.3032 25.3052C37.3668 25.4619 37.4731 25.5977 37.61 25.6971C37.7469 25.7965 37.9089 25.8556 38.0776 25.8676C38.2464 25.8797 38.4151 25.8442 38.5648 25.7652L45.0001 22.3818L51.4354 25.7652C51.6111 25.8587 51.8151 25.8899 52.0106 25.8559C52.5037 25.7709 52.8352 25.3033 52.7502 24.8102L51.5204 17.6439L56.7259 12.5687C56.8675 12.4299 56.9611 12.2485 56.9894 12.0502C57.0659 11.5543 56.7202 11.0952 56.2243 11.0215Z" fill="#230A06"/>
<path d="M86.2243 11.0215L79.0296 9.97589L75.8133 3.45558C75.7255 3.27706 75.581 3.13254 75.4024 3.04469C74.9547 2.82367 74.4106 3.00786 74.1868 3.45558L70.9706 9.97589L63.7758 11.0215C63.5775 11.0499 63.3961 11.1434 63.2573 11.2851C63.0894 11.4576 62.9969 11.6897 63.0001 11.9304C63.0033 12.1711 63.1019 12.4007 63.2743 12.5687L68.4797 17.6439L67.2499 24.8102C67.2211 24.977 67.2395 25.1484 67.3032 25.3052C67.3668 25.4619 67.4731 25.5977 67.61 25.6971C67.7469 25.7965 67.9089 25.8556 68.0776 25.8676C68.2464 25.8797 68.4151 25.8442 68.5648 25.7652L75.0001 22.3818L81.4354 25.7652C81.6111 25.8587 81.8151 25.8899 82.0106 25.8559C82.5037 25.7709 82.8352 25.3033 82.7502 24.8102L81.5204 17.6439L86.7259 12.5687C86.8675 12.4299 86.9611 12.2485 86.9894 12.0502C87.0659 11.5543 86.7202 11.0952 86.2243 11.0215Z" fill="#230A06"/>
<path d="M116.224 11.0215L109.03 9.97589L105.813 3.45558C105.725 3.27706 105.581 3.13254 105.402 3.04469C104.955 2.82367 104.411 3.00786 104.187 3.45558L100.971 9.97589L93.7758 11.0215C93.5775 11.0499 93.3961 11.1434 93.2573 11.2851C93.0894 11.4576 92.9969 11.6897 93.0001 11.9304C93.0033 12.1711 93.1019 12.4007 93.2743 12.5687L98.4797 17.6439L97.2499 24.8102C97.2211 24.977 97.2395 25.1484 97.3032 25.3052C97.3668 25.4619 97.4731 25.5977 97.61 25.6971C97.7469 25.7965 97.9089 25.8556 98.0776 25.8676C98.2464 25.8797 98.4151 25.8442 98.5648 25.7652L105 22.3818L111.435 25.7652C111.611 25.8587 111.815 25.8899 112.011 25.8559C112.504 25.7709 112.835 25.3033 112.75 24.8102L111.52 17.6439L116.726 12.5687C116.868 12.4299 116.961 12.2485 116.989 12.0502C117.066 11.5543 116.72 11.0952 116.224 11.0215Z" fill="#230A06"/>
<path d="M146.224 11.0215L139.03 9.97589L135.813 3.45558C135.725 3.27706 135.581 3.13254 135.402 3.04469C134.955 2.82367 134.411 3.00786 134.187 3.45558L130.971 9.97589L123.776 11.0215C123.577 11.0499 123.396 11.1434 123.257 11.2851C123.089 11.4576 122.997 11.6897 123 11.9304C123.003 12.1711 123.102 12.4007 123.274 12.5687L128.48 17.6439L127.25 24.8102C127.221 24.977 127.24 25.1484 127.303 25.3052C127.367 25.4619 127.473 25.5977 127.61 25.6971C127.747 25.7965 127.909 25.8556 128.078 25.8676C128.246 25.8797 128.415 25.8442 128.565 25.7652L135 22.3818L141.435 25.7652C141.611 25.8587 141.815 25.8899 142.011 25.8559C142.504 25.7709 142.835 25.3033 142.75 24.8102L141.52 17.6439L146.726 12.5687C146.868 12.4299 146.961 12.2485 146.989 12.0502C147.066 11.5543 146.72 11.0952 146.224 11.0215Z" fill="#230A06"/>
</svg>
