<svg width="55" height="55" viewBox="0 0 55 55" fill="none" xmlns="http://www.w3.org/2000/svg">
<path d="M50.4167 29.028C50.2156 29.0291 50.0163 28.9906 49.8302 28.9146C49.644 28.8385 49.4747 28.7265 49.332 28.5849L27.5 6.7377L5.66808 28.5849C5.37581 28.8352 4.99986 28.966 4.61536 28.9512C4.23085 28.9363 3.86611 28.7769 3.59402 28.5048C3.32193 28.2327 3.16254 27.868 3.14768 27.4835C3.13283 27.099 3.26362 26.723 3.51391 26.4308L26.4306 3.51409C26.7168 3.22954 27.104 3.06982 27.5077 3.06982C27.9113 3.06982 28.2985 3.22954 28.5847 3.51409L51.5014 26.4308C51.7116 26.6452 51.854 26.9169 51.9107 27.2118C51.9674 27.5068 51.9359 27.8119 51.8201 28.089C51.7044 28.3661 51.5095 28.603 51.2599 28.77C51.0103 28.937 50.717 29.0267 50.4167 29.028Z" fill="#230A06"/>
<path d="M27.5 11.9014L9.16669 30.2958V48.8889C9.16669 49.6993 9.48861 50.4764 10.0616 51.0495C10.6347 51.6225 11.4119 51.9444 12.2222 51.9444H22.9167V36.6666H32.0834V51.9444H42.7778C43.5882 51.9444 44.3654 51.6225 44.9384 51.0495C45.5114 50.4764 45.8334 49.6993 45.8334 48.8889V30.1889L27.5 11.9014Z" fill="#230A06"/>
</svg>
