<svg width="48" height="35" viewBox="0 0 48 35" fill="none" xmlns="http://www.w3.org/2000/svg">
<path d="M18.1667 17.5C20.4873 17.5 22.7129 16.5781 24.3539 14.9372C25.9948 13.2962 26.9167 11.0706 26.9167 8.75C26.9167 6.42936 25.9948 4.20376 24.3539 2.56282C22.7129 0.921873 20.4873 0 18.1667 0C15.846 0 13.6204 0.921873 11.9795 2.56282C10.3386 4.20376 9.41669 6.42936 9.41669 8.75C9.41669 11.0706 10.3386 13.2962 11.9795 14.9372C13.6204 16.5781 15.846 17.5 18.1667 17.5ZM24 8.75C24 10.2971 23.3854 11.7808 22.2915 12.8748C21.1975 13.9688 19.7138 14.5833 18.1667 14.5833C16.6196 14.5833 15.1359 13.9688 14.0419 12.8748C12.9479 11.7808 12.3334 10.2971 12.3334 8.75C12.3334 7.2029 12.9479 5.71917 14.0419 4.62521C15.1359 3.53125 16.6196 2.91667 18.1667 2.91667C19.7138 2.91667 21.1975 3.53125 22.2915 4.62521C23.3854 5.71917 24 7.2029 24 8.75ZM35.6667 32.0833C35.6667 35 32.75 35 32.75 35H3.58335C3.58335 35 0.666687 35 0.666687 32.0833C0.666687 29.1667 3.58335 20.4167 18.1667 20.4167C32.75 20.4167 35.6667 29.1667 35.6667 32.0833ZM32.75 32.0717C32.7471 31.3542 32.3009 29.1958 30.3234 27.2183C28.4217 25.3167 24.8429 23.3333 18.1667 23.3333C11.4875 23.3333 7.91169 25.3167 6.01002 27.2183C4.03252 29.1958 3.58919 31.3542 3.58335 32.0717H32.75Z" fill="#230A06"/>
<path d="M32.75 32.0717C32.7471 31.3542 32.3009 29.1958 30.3234 27.2183C28.4217 25.3167 24.8429 23.3333 18.1667 23.3333C11.4875 23.3333 7.91169 25.3167 6.01002 27.2183C4.03252 29.1958 3.58919 31.3542 3.58335 32.0717H32.75Z" fill="#230A06"/>
<path d="M24 8.75C24 10.2971 23.3854 11.7808 22.2915 12.8748C21.1975 13.9688 19.7138 14.5833 18.1667 14.5833C16.6196 14.5833 15.1359 13.9688 14.0419 12.8748C12.9479 11.7808 12.3334 10.2971 12.3334 8.75C12.3334 7.2029 12.9479 5.71917 14.0419 4.62521C15.1359 3.53125 16.6196 2.91667 18.1667 2.91667C19.7138 2.91667 21.1975 3.53125 22.2915 4.62521C23.3854 5.71917 24 7.2029 24 8.75Z" fill="#230A06"/>
<path fill-rule="evenodd" clip-rule="evenodd" d="M40.0417 8.75C40.4284 8.75 40.7994 8.90365 41.0729 9.17714C41.3464 9.45063 41.5 9.82156 41.5 10.2083V14.5833H45.875C46.2618 14.5833 46.6327 14.737 46.9062 15.0105C47.1797 15.284 47.3333 15.6549 47.3333 16.0417C47.3333 16.4284 47.1797 16.7994 46.9062 17.0729C46.6327 17.3464 46.2618 17.5 45.875 17.5H41.5V21.875C41.5 22.2618 41.3464 22.6327 41.0729 22.9062C40.7994 23.1797 40.4284 23.3333 40.0417 23.3333C39.6549 23.3333 39.284 23.1797 39.0105 22.9062C38.737 22.6327 38.5833 22.2618 38.5833 21.875V17.5H34.2083C33.8216 17.5 33.4506 17.3464 33.1771 17.0729C32.9036 16.7994 32.75 16.4284 32.75 16.0417C32.75 15.6549 32.9036 15.284 33.1771 15.0105C33.4506 14.737 33.8216 14.5833 34.2083 14.5833H38.5833V10.2083C38.5833 9.82156 38.737 9.45063 39.0105 9.17714C39.284 8.90365 39.6549 8.75 40.0417 8.75Z" fill="#230A06"/>
</svg>
