<svg width="55" height="55" viewBox="0 0 55 55" fill="none" xmlns="http://www.w3.org/2000/svg">
<path d="M6.87502 9.1665C5.65944 9.1665 4.49366 9.64939 3.63411 10.5089C2.77457 11.3685 2.29169 12.5343 2.29169 13.7498V38.9582H6.87502C6.87502 40.7815 7.59935 42.5302 8.88866 43.8195C10.178 45.1088 11.9267 45.8332 13.75 45.8332C15.5734 45.8332 17.3221 45.1088 18.6114 43.8195C19.9007 42.5302 20.625 40.7815 20.625 38.9582H34.375C34.375 40.7815 35.0993 42.5302 36.3887 43.8195C37.678 45.1088 39.4267 45.8332 41.25 45.8332C43.0734 45.8332 44.8221 45.1088 46.1114 43.8195C47.4007 42.5302 48.125 40.7815 48.125 38.9582H52.7084V27.4998L45.8334 18.3332H38.9584V9.1665H6.87502ZM22.9167 13.7498L32.0834 22.9165L22.9167 32.0832V25.2082H9.16669V20.6248H22.9167V13.7498ZM38.9584 21.7707H44.6875L49.2021 27.4998H38.9584V21.7707ZM13.75 35.5207C14.6617 35.5207 15.536 35.8828 16.1807 36.5275C16.8254 37.1721 17.1875 38.0465 17.1875 38.9582C17.1875 39.8699 16.8254 40.7442 16.1807 41.3889C15.536 42.0335 14.6617 42.3957 13.75 42.3957C12.8383 42.3957 11.964 42.0335 11.3193 41.3889C10.6747 40.7442 10.3125 39.8699 10.3125 38.9582C10.3125 38.0465 10.6747 37.1721 11.3193 36.5275C11.964 35.8828 12.8383 35.5207 13.75 35.5207ZM41.25 35.5207C42.1617 35.5207 43.036 35.8828 43.6807 36.5275C44.3254 37.1721 44.6875 38.0465 44.6875 38.9582C44.6875 39.8699 44.3254 40.7442 43.6807 41.3889C43.036 42.0335 42.1617 42.3957 41.25 42.3957C40.3383 42.3957 39.464 42.0335 38.8193 41.3889C38.1747 40.7442 37.8125 39.8699 37.8125 38.9582C37.8125 38.0465 38.1747 37.1721 38.8193 36.5275C39.464 35.8828 40.3383 35.5207 41.25 35.5207Z" fill="#230A06"/>
</svg>
