<?xml version="1.0" encoding="utf-8"?>
<!-- Generator: Adobe Adobe Illustrator 24.2.0, SVG Export Plug-In . SVG Version: 6.00 Build 0)  -->
<svg version="1.1" id="Layer_1" xmlns="http://www.w3.org/2000/svg" xmlns:xlink="http://www.w3.org/1999/xlink" x="0px" y="0px"
	 width="300px" height="300px" viewBox="0 0 300 300" style="enable-background:new 0 0 300 300;" xml:space="preserve">
<style type="text/css">
	.st0{fill:#C0E8DD;}
	.st1{fill:none;stroke:#C0E8DD;stroke-miterlimit:10;}
	.st2{fill:none;stroke:#000000;stroke-miterlimit:10;}
	.st3{fill:#FAE9E7;stroke:#FFFFFF;stroke-miterlimit:10;}
	.st4{fill:none;}
	.st5{fill:none;stroke:#000000;stroke-width:10;stroke-miterlimit:10;}
	.st6{fill:#FFFFFF;stroke:#000000;stroke-miterlimit:10;}
	.st7{fill:#F3A492;}
	.st8{fill:none;stroke:#FFFFFF;stroke-miterlimit:10;}
</style>
<g>
	<g>
		<path d="M31.18,138.39c-1.26-0.63-2.33-1.6-3.19-2.89c-0.86-1.3-1.3-2.88-1.3-4.75c0-1.82,0.38-3.45,1.15-4.87
			c0.77-1.42,1.75-2.53,2.95-3.32s2.42-1.19,3.67-1.19c0.53,0,1,0.06,1.42,0.17c0.42,0.11,0.9,0.26,1.44,0.46
			c0.21,0.08,0.41,0.15,0.61,0.22s0.36,0.1,0.49,0.1c0.46,0,0.88-0.16,1.25-0.48c0.05-0.05,0.1-0.06,0.14-0.05
			c0.05,0.02,0.08,0.06,0.1,0.12l0.62,2.59l0.26,1.06l0.05,0.26c0,0.1-0.03,0.17-0.1,0.22c-0.02,0.02-0.07,0.05-0.17,0.1h-0.07
			c-0.1,0-0.19-0.06-0.29-0.17c-0.08-0.11-0.34-0.51-0.77-1.2c-0.43-0.69-1.07-1.27-1.91-1.75s-1.81-0.72-2.92-0.72
			c-1.6,0-2.83,0.52-3.68,1.55c-0.86,1.03-1.42,2.15-1.68,3.35c-0.26,1.2-0.4,2.22-0.4,3.05c0,1.81,0.32,3.31,0.97,4.51
			c0.65,1.2,1.46,2.08,2.42,2.63c0.97,0.55,1.94,0.83,2.92,0.83c1.2,0,2.22-0.32,3.07-0.97c0.85-0.65,1.66-1.54,2.42-2.68
			c0.08-0.1,0.15-0.14,0.22-0.14c0.06,0,0.14,0.04,0.24,0.12c0.11,0.1,0.17,0.18,0.17,0.26c0,0.03-0.02,0.08-0.05,0.14
			c-1.62,2.94-3.76,4.42-6.43,4.42C33.66,139.34,32.45,139.02,31.18,138.39z"/>
		<path d="M50.48,137.81c-1.1-1.02-1.66-2.37-1.66-4.07v-10.01c0-0.56-0.16-0.95-0.49-1.16c-0.33-0.22-0.85-0.32-1.57-0.32H46.4
			c-0.11,0-0.17-0.11-0.17-0.34s0.06-0.34,0.17-0.34h6.77c0.08,0,0.13,0.03,0.16,0.08c0.02,0.06,0.04,0.14,0.04,0.25
			c0,0.22-0.06,0.34-0.19,0.34h-0.36c-0.72,0-1.25,0.11-1.58,0.32c-0.34,0.22-0.5,0.6-0.5,1.16c0,3.02,0,5.09,0.01,6.19
			s0.01,1.82,0.01,2.14v0.62c0,1.58,0.3,2.94,0.91,4.06s1.79,1.68,3.55,1.68c1.9,0,3.2-0.53,3.88-1.58
			c0.68-1.06,1.02-2.44,1.02-4.15v-8.52c0-0.54-0.22-1-0.67-1.37c-0.45-0.37-0.91-0.55-1.39-0.55h-0.36c-0.11,0-0.17-0.11-0.17-0.34
			s0.06-0.34,0.17-0.34h5.83c0.08,0,0.13,0.03,0.16,0.08c0.02,0.06,0.04,0.14,0.04,0.25c0,0.22-0.06,0.34-0.19,0.34h-0.36
			c-0.48,0-0.94,0.18-1.39,0.55c-0.45,0.37-0.67,0.82-0.67,1.37l-0.05,9.22c0,1.82-0.5,3.27-1.51,4.34
			c-1.01,1.07-2.45,1.61-4.32,1.61C53.16,139.34,51.58,138.83,50.48,137.81z"/>
		<path d="M73.75,139.09c-0.78-0.15-1.46-0.34-2.05-0.56c-0.19-0.06-0.39-0.1-0.6-0.1c-0.21,0-0.4,0.05-0.59,0.14
			c-0.18,0.1-0.42,0.26-0.71,0.5c-0.06,0.05-0.12,0.06-0.16,0.05c-0.04-0.02-0.07-0.06-0.08-0.12l-1.06-4.44l-0.02-0.14
			c0-0.08,0.08-0.15,0.24-0.22l0.14-0.02c0.11,0,0.2,0.06,0.26,0.19c1.52,2.74,3.66,4.1,6.43,4.1c1.06,0,2.04-0.26,2.94-0.78
			c0.9-0.52,1.36-1.41,1.36-2.68c0-0.58-0.16-1.12-0.48-1.64s-0.78-0.94-1.39-1.26c-0.5-0.26-0.98-0.46-1.44-0.62
			c-0.46-0.16-1.03-0.34-1.7-0.55c-0.99-0.29-1.7-0.53-2.11-0.72c-1.23-0.58-2.08-1.22-2.53-1.92c-0.46-0.7-0.68-1.48-0.68-2.33
			c0-0.61,0.14-1.26,0.43-1.97s0.8-1.32,1.55-1.85c0.74-0.53,1.75-0.79,3.01-0.79c0.5,0,0.99,0.05,1.49,0.16s1.04,0.26,1.63,0.47
			c0.27,0.08,0.49,0.12,0.65,0.12c0.38,0,0.76-0.18,1.13-0.55c0.13-0.13,0.22-0.11,0.26,0.05l1.13,3.82l0.02,0.17
			c0,0.1-0.06,0.17-0.19,0.22c-0.1,0.03-0.17,0.05-0.22,0.05c-0.1,0-0.18-0.05-0.24-0.14c-0.19-0.32-0.54-0.75-1.03-1.3
			c-0.5-0.54-1.16-1.06-1.99-1.54c-0.83-0.48-1.76-0.72-2.78-0.72c-0.99,0-1.74,0.23-2.26,0.68c-0.51,0.46-0.84,0.92-0.98,1.39
			c-0.14,0.47-0.22,0.83-0.22,1.07c0,1.14,0.68,2.05,2.04,2.74c0.61,0.29,1.5,0.61,2.69,0.96c0.7,0.21,1.31,0.4,1.81,0.58
			c0.5,0.18,1,0.38,1.48,0.62c1.86,0.96,2.78,2.45,2.78,4.46c0,0.88-0.24,1.67-0.71,2.38s-1.16,1.26-2.05,1.67
			c-0.9,0.41-1.94,0.61-3.14,0.61C75.21,139.31,74.52,139.24,73.75,139.09z"/>
		<path d="M91.21,139c-0.1,0-0.14-0.12-0.14-0.36c0-0.21,0.05-0.31,0.14-0.31h0.36c0.72,0,1.25-0.12,1.58-0.35s0.5-0.62,0.5-1.16
			v-13.06c0-0.61-0.16-1.01-0.47-1.21c-0.31-0.2-0.77-0.3-1.38-0.3c-0.24,0-0.44,0.01-0.6,0.02c-0.66,0.03-1.4,0.3-2.24,0.8
			c-0.84,0.5-1.52,1.1-2.03,1.79c-0.1,0.11-0.18,0.17-0.26,0.17c-0.05,0-0.1-0.02-0.17-0.05c-0.16-0.06-0.24-0.14-0.24-0.22
			l0.02-0.12c0.1-0.27,0.25-0.7,0.47-1.28c0.22-0.58,0.43-1.13,0.64-1.64c0.03-0.1,0.1-0.14,0.22-0.14h13.99
			c0.13,0,0.2,0.05,0.22,0.14c0.21,0.51,0.42,1.06,0.64,1.64c0.22,0.58,0.37,1.01,0.47,1.28l0.02,0.12c0,0.08-0.08,0.15-0.24,0.22
			c-0.06,0.03-0.12,0.05-0.17,0.05c-0.08,0-0.17-0.06-0.26-0.17c-0.51-0.69-1.19-1.28-2.03-1.79c-0.84-0.5-1.59-0.77-2.24-0.8
			c-0.14-0.02-0.34-0.02-0.6-0.02c-0.62,0-1.09,0.1-1.39,0.31c-0.3,0.21-0.46,0.61-0.46,1.2v13.06c0,0.56,0.17,0.95,0.52,1.18
			s0.87,0.34,1.57,0.34H98c0.11,0,0.17,0.1,0.17,0.31c0,0.24-0.06,0.36-0.17,0.36H91.21z"/>
		<path d="M111.52,138.29c-1.21-0.7-2.2-1.72-2.99-3.08c-0.78-1.36-1.18-2.98-1.18-4.87c0-1.87,0.39-3.49,1.18-4.85
			c0.78-1.36,1.78-2.39,2.99-3.08c1.21-0.7,2.44-1.04,3.68-1.04s2.47,0.35,3.67,1.04c1.2,0.7,2.19,1.72,2.98,3.08
			c0.78,1.36,1.18,2.98,1.18,4.85c0,1.89-0.39,3.51-1.18,4.87c-0.78,1.36-1.78,2.39-2.98,3.08s-2.42,1.04-3.67,1.04
			S112.73,138.99,111.52,138.29z M117.93,137.62c0.86-0.62,1.55-1.54,2.09-2.78c0.54-1.24,0.8-2.74,0.8-4.5
			c0-1.74-0.27-3.23-0.8-4.46c-0.54-1.23-1.23-2.16-2.09-2.77c-0.86-0.62-1.76-0.92-2.72-0.92s-1.87,0.31-2.74,0.92
			c-0.86,0.62-1.56,1.54-2.09,2.77c-0.53,1.23-0.79,2.72-0.79,4.46c0,1.76,0.26,3.26,0.79,4.5c0.53,1.24,1.22,2.17,2.09,2.78
			c0.86,0.62,1.78,0.92,2.74,0.92S117.07,138.24,117.93,137.62z"/>
		<path d="M128.67,139c-0.13,0-0.19-0.12-0.19-0.36c0-0.21,0.06-0.31,0.19-0.31h0.34c0.53,0,1.01-0.18,1.44-0.55
			c0.43-0.37,0.65-0.82,0.65-1.37v-12.67c0-0.56-0.16-0.95-0.49-1.16c-0.33-0.22-0.86-0.32-1.6-0.32h-0.34
			c-0.11,0-0.17-0.11-0.17-0.34s0.06-0.34,0.17-0.34h4.32c0.13,0,0.21,0.05,0.24,0.14l5.88,14.04l6.17-14.04
			c0.03-0.1,0.11-0.14,0.24-0.14h4.1c0.08,0,0.13,0.03,0.16,0.08c0.02,0.06,0.04,0.14,0.04,0.25c0,0.22-0.06,0.34-0.19,0.34h-0.36
			c-0.75,0-1.28,0.11-1.58,0.34c-0.3,0.22-0.46,0.61-0.46,1.15v13.08c0,0.56,0.16,0.95,0.48,1.18c0.32,0.22,0.84,0.34,1.56,0.34
			h0.36c0.11,0,0.17,0.1,0.17,0.31c0,0.24-0.06,0.36-0.17,0.36h-6.74c-0.1,0-0.14-0.12-0.14-0.36c0-0.21,0.05-0.31,0.14-0.31h0.41
			c0.74,0,1.26-0.12,1.58-0.35c0.32-0.23,0.48-0.62,0.48-1.16v-12.98l-6.53,15.02c-0.03,0.1-0.1,0.14-0.22,0.14
			c-0.11,0-0.18-0.05-0.22-0.14l-6.36-15.05v12.6c0,0.54,0.22,1,0.67,1.37c0.45,0.37,0.91,0.55,1.39,0.55h0.38
			c0.1,0,0.14,0.1,0.14,0.31c0,0.24-0.05,0.36-0.14,0.36H128.67z"/>
		<path d="M155.5,139c-0.11,0-0.17-0.11-0.17-0.34s0.06-0.34,0.17-0.34h0.38c0.72,0,1.24-0.12,1.57-0.35
			c0.33-0.23,0.49-0.61,0.49-1.14v-13.08c0-0.56-0.17-0.95-0.5-1.18c-0.34-0.22-0.86-0.34-1.56-0.34h-0.38
			c-0.11,0-0.17-0.11-0.17-0.34s0.06-0.34,0.17-0.34h6.79c0.08,0,0.13,0.03,0.16,0.08c0.02,0.06,0.04,0.14,0.04,0.25
			c0,0.22-0.06,0.34-0.19,0.34h-0.36c-0.75,0-1.28,0.11-1.6,0.34c-0.31,0.22-0.47,0.62-0.47,1.18v13.08c0,0.56,0.16,0.95,0.48,1.16
			c0.32,0.22,0.85,0.32,1.58,0.32h0.36c0.08,0,0.13,0.03,0.16,0.08c0.02,0.06,0.04,0.14,0.04,0.25c0,0.22-0.06,0.34-0.19,0.34H155.5
			z"/>
		<path d="M172.89,139.09c-0.78-0.15-1.46-0.34-2.05-0.56c-0.19-0.06-0.39-0.1-0.6-0.1c-0.21,0-0.4,0.05-0.59,0.14
			c-0.18,0.1-0.42,0.26-0.71,0.5c-0.06,0.05-0.12,0.06-0.16,0.05c-0.04-0.02-0.07-0.06-0.08-0.12l-1.06-4.44l-0.02-0.14
			c0-0.08,0.08-0.15,0.24-0.22l0.14-0.02c0.11,0,0.2,0.06,0.26,0.19c1.52,2.74,3.66,4.1,6.43,4.1c1.06,0,2.04-0.26,2.94-0.78
			c0.9-0.52,1.36-1.41,1.36-2.68c0-0.58-0.16-1.12-0.48-1.64s-0.78-0.94-1.39-1.26c-0.5-0.26-0.98-0.46-1.44-0.62
			c-0.46-0.16-1.03-0.34-1.7-0.55c-0.99-0.29-1.7-0.53-2.11-0.72c-1.23-0.58-2.08-1.22-2.53-1.92c-0.46-0.7-0.68-1.48-0.68-2.33
			c0-0.61,0.14-1.26,0.43-1.97s0.8-1.32,1.55-1.85c0.74-0.53,1.75-0.79,3.01-0.79c0.5,0,0.99,0.05,1.49,0.16s1.04,0.26,1.63,0.47
			c0.27,0.08,0.49,0.12,0.65,0.12c0.38,0,0.76-0.18,1.13-0.55c0.13-0.13,0.22-0.11,0.26,0.05l1.13,3.82l0.02,0.17
			c0,0.1-0.06,0.17-0.19,0.22c-0.1,0.03-0.17,0.05-0.22,0.05c-0.1,0-0.18-0.05-0.24-0.14c-0.19-0.32-0.54-0.75-1.03-1.3
			c-0.5-0.54-1.16-1.06-1.99-1.54c-0.83-0.48-1.76-0.72-2.78-0.72c-0.99,0-1.74,0.23-2.26,0.68c-0.51,0.46-0.84,0.92-0.98,1.39
			c-0.14,0.47-0.22,0.83-0.22,1.07c0,1.14,0.68,2.05,2.04,2.74c0.61,0.29,1.5,0.61,2.69,0.96c0.7,0.21,1.31,0.4,1.81,0.58
			c0.5,0.18,1,0.38,1.48,0.62c1.86,0.96,2.78,2.45,2.78,4.46c0,0.88-0.24,1.67-0.71,2.38s-1.16,1.26-2.05,1.67
			c-0.9,0.41-1.94,0.61-3.14,0.61C174.35,139.31,173.67,139.24,172.89,139.09z"/>
		<path d="M200.93,135.04c0,0.05-0.04,0.18-0.12,0.38c-0.32,0.8-0.75,1.94-1.3,3.43c-0.02,0.1-0.09,0.14-0.22,0.14h-13.15
			c-0.11,0-0.17-0.11-0.17-0.34s0.06-0.34,0.17-0.34h0.38c0.72,0,1.24-0.12,1.57-0.35c0.33-0.23,0.49-0.62,0.49-1.16v-13.06
			c0-0.56-0.17-0.95-0.52-1.18c-0.34-0.22-0.86-0.34-1.55-0.34h-0.38c-0.11,0-0.17-0.11-0.17-0.34s0.06-0.34,0.17-0.34h12.43
			c0.1,0,0.17,0.04,0.22,0.12c0.86,1.5,1.34,2.37,1.42,2.59c0.02,0.03,0.02,0.07,0.02,0.12c0,0.08-0.06,0.16-0.19,0.24
			c-0.05,0.03-0.11,0.05-0.19,0.05c-0.1,0-0.18-0.03-0.24-0.1c-0.7-0.7-1.56-1.27-2.57-1.69s-2.1-0.64-3.26-0.64h-0.6
			c-0.66,0-1.16,0.03-1.51,0.08c-0.35,0.06-0.63,0.19-0.84,0.4c-0.21,0.21-0.31,0.54-0.31,1.01v5.81h2.16
			c0.98,0,1.62-0.01,1.92-0.02c0.67-0.02,1.2-0.24,1.57-0.67s0.56-0.98,0.56-1.63c0-0.11,0.1-0.17,0.31-0.17
			c0.11,0,0.2,0.01,0.25,0.04s0.08,0.07,0.08,0.13v5.5c0,0.13-0.11,0.19-0.34,0.19c-0.21,0-0.31-0.06-0.31-0.19
			c0-0.66-0.19-1.2-0.56-1.63s-0.9-0.66-1.57-0.67c-0.3-0.02-0.94-0.02-1.92-0.02h-2.16v6.41c0,0.54,0.17,0.92,0.5,1.13
			c0.34,0.21,0.86,0.33,1.56,0.36c0.21,0.02,0.57,0.02,1.08,0.02c0.38,0,0.66-0.01,0.84-0.02c0.99-0.08,1.84-0.29,2.54-0.62
			s1.28-0.72,1.74-1.16s0.96-1.01,1.52-1.72c0.05-0.06,0.11-0.1,0.19-0.1c0.05,0,0.12,0.02,0.22,0.05
			C200.86,134.8,200.93,134.9,200.93,135.04z"/>
	</g>
	<g>
		<path d="M202.89,168.78c-0.13,0-0.19-0.12-0.19-0.36c0-0.21,0.06-0.31,0.19-0.31h0.34c0.53,0,1.01-0.18,1.44-0.55
			c0.43-0.37,0.65-0.82,0.65-1.37v-12.67c0-0.56-0.16-0.95-0.49-1.16c-0.33-0.21-0.86-0.32-1.6-0.32h-0.34
			c-0.11,0-0.17-0.11-0.17-0.34s0.06-0.34,0.17-0.34h4.32c0.13,0,0.21,0.05,0.24,0.14l5.88,14.04l6.17-14.04
			c0.03-0.1,0.11-0.14,0.24-0.14h4.1c0.08,0,0.13,0.03,0.16,0.08c0.02,0.06,0.04,0.14,0.04,0.25c0,0.22-0.06,0.34-0.19,0.34h-0.36
			c-0.75,0-1.28,0.11-1.58,0.34s-0.46,0.61-0.46,1.15v13.08c0,0.56,0.16,0.95,0.48,1.18c0.32,0.22,0.84,0.34,1.56,0.34h0.36
			c0.11,0,0.17,0.1,0.17,0.31c0,0.24-0.06,0.36-0.17,0.36h-6.74c-0.1,0-0.14-0.12-0.14-0.36c0-0.21,0.05-0.31,0.14-0.31h0.41
			c0.74,0,1.26-0.12,1.58-0.35c0.32-0.23,0.48-0.62,0.48-1.16v-12.98l-6.53,15.02c-0.03,0.1-0.1,0.14-0.22,0.14
			c-0.11,0-0.18-0.05-0.22-0.14l-6.36-15.05v12.6c0,0.54,0.22,1,0.67,1.37c0.45,0.37,0.91,0.55,1.39,0.55h0.38
			c0.1,0,0.14,0.1,0.14,0.31c0,0.24-0.05,0.36-0.14,0.36H202.89z"/>
		<path d="M244.5,164.82c0,0.05-0.04,0.18-0.12,0.38c-0.32,0.8-0.75,1.94-1.3,3.43c-0.02,0.1-0.09,0.14-0.22,0.14h-13.15
			c-0.11,0-0.17-0.11-0.17-0.34s0.06-0.34,0.17-0.34h0.38c0.72,0,1.24-0.12,1.57-0.35c0.33-0.23,0.49-0.62,0.49-1.16v-13.06
			c0-0.56-0.17-0.95-0.52-1.18s-0.86-0.34-1.55-0.34h-0.38c-0.11,0-0.17-0.11-0.17-0.34s0.06-0.34,0.17-0.34h12.43
			c0.1,0,0.17,0.04,0.22,0.12c0.86,1.5,1.34,2.37,1.42,2.59c0.02,0.03,0.02,0.07,0.02,0.12c0,0.08-0.06,0.16-0.19,0.24
			c-0.05,0.03-0.11,0.05-0.19,0.05c-0.1,0-0.18-0.03-0.24-0.1c-0.7-0.71-1.56-1.27-2.57-1.69s-2.1-0.64-3.26-0.64h-0.6
			c-0.66,0-1.16,0.03-1.51,0.08c-0.35,0.06-0.63,0.19-0.84,0.4s-0.31,0.54-0.31,1.01v5.81h2.16c0.98,0,1.62-0.01,1.92-0.02
			c0.67-0.02,1.2-0.24,1.57-0.67s0.56-0.98,0.56-1.63c0-0.11,0.1-0.17,0.31-0.17c0.11,0,0.2,0.01,0.25,0.04
			c0.06,0.02,0.08,0.07,0.08,0.13v5.5c0,0.13-0.11,0.19-0.34,0.19c-0.21,0-0.31-0.06-0.31-0.19c0-0.66-0.19-1.2-0.56-1.63
			c-0.38-0.43-0.9-0.66-1.57-0.67c-0.3-0.02-0.94-0.02-1.92-0.02h-2.16v6.41c0,0.54,0.17,0.92,0.5,1.13s0.86,0.33,1.56,0.36
			c0.21,0.02,0.57,0.02,1.08,0.02c0.38,0,0.66-0.01,0.84-0.02c0.99-0.08,1.84-0.29,2.54-0.62s1.28-0.72,1.74-1.16
			c0.46-0.44,0.96-1.01,1.52-1.72c0.05-0.06,0.11-0.1,0.19-0.1c0.05,0,0.12,0.02,0.22,0.05C244.43,164.58,244.5,164.67,244.5,164.82
			z"/>
	</g>
	<g>
		<path d="M213.52,123.27l-21.73,51.04c-0.15,0.26-0.33,0.33-0.55,0.22l-1.21-0.55c-0.26-0.15-0.33-0.33-0.22-0.55l21.78-51.04
			c0.15-0.26,0.33-0.33,0.55-0.22l1.16,0.55C213.56,122.86,213.63,123.05,213.52,123.27z"/>
	</g>
</g>
<rect x="287.84" y="180.99" class="st4" width="0" height="0"/>
</svg>
