<svg id="Layer_1" data-name="Layer 1" xmlns="http://www.w3.org/2000/svg" viewBox="0 0 300 300">
  <defs>
    <style>
      .cls-1 {
        fill: #fce9c4;
      }

      .cls-2 {
        fill: #fcdd9c;
      }

      .cls-3 {
        fill: none;
        stroke: #000;
        stroke-miterlimit: 10;
        stroke-width: 0.3px;
      }
    </style>
  </defs>
  <g>
    <path class="cls-1" d="M271.15,159.46c-2.34-2.34-5.72-.36-6.67-2.72-.44-1.08.23-5.83-.66-6.57-.29-.24-1.24-3.85-1.46-4.1-1.05-1.18,1.37-3.44.95-4.92s-1.42-3.83-2.6-4.71c-2-1.5-4.86-3.54-7-4.94a22.71,22.71,0,0,0-7.75-3.61c-2.61-.77-9-1.7-11.76-1-2.59.64-7.64-.42-10.29.17s-4.22,3-7,3c-3.09,0-4.58.94-7.47,2.07-4.06,1.58-8.45.71-12.37,2.67-3.7,1.84-9.62,8.56-12.83,11.15-2,1.64-4.14,4.53-6.59,5-1,.2-2.9.28-3.84-.57a28.57,28.57,0,0,0-4.06-3.34c-1.27-.6-1,.51-1.48-.67s1.75-3.87,2.59-5.37c1.89-3.37,1.62-5,15.08-6.88,2.9-.4,1.69-3.47,2.33-6.2a8.09,8.09,0,0,1,3.73-4.41c3.31-1.28,7-1,11.3-4.74,3.46-3,8.94-3,12.44-6.08C218.9,110,227.84,97.1,230,93.56c1.52-2.49,2.22-6.86,1.35-8.7a24.22,24.22,0,0,0-4.52-6c-3.54-2.62-1.31-8.46-4.1-9.64-7.79-3.32-4.23-9.5-5.62-9.57-4.19-.22-11.31-3.62-14.78-5.09-3.19-1.35-5.21,1.81-8.38,2.08a9,9,0,0,1-4.93-.85c-1.29-.63-2.27-1.58-3.76-1.75a12.29,12.29,0,0,0-4.34.52c-4.38,1.12-8.11,4.57-12.06,6.67-5.15,2.76-10,6-15.23,8.61-2.59,1.29-5.66,3.52-8.68,1.79-.77-.44-.93-1.27-1.69-1.68-1.05-.56-1.5.15-2.62.25a22.39,22.39,0,0,1-3-.31A29.82,29.82,0,0,1,132,69.3c-3.17-.76-6.62-2.42-9.94-1.15-2.56,1-3,5.86-4.14,8-1.92,3.66-4.61,6.9-6.82,10.39-1.71,2.7-4.1,4.49-6.26,6.79-2,2.09-3.93,1.67-5.82,3.85-1.63,1.87-3.51,4.22-5.1,6.13-2.08,2.49-6,5.2-7.16,8.28-2.26,6.14-3.62,10.69-6.75,16.54-1.67,3.13,1.11,4.57-.66,7.65-1.6,2.76-3.51,11-5.21,13.75-1.89,3-7.52,6.72-9.82,9.44-1.86,2.21-1.46,1.93.9,3,1.16.51,6.61.85,7.68,1.47,1.93,1.14,4.13,1.5,5.47,3.44,5.29,7.62,11.73,15.16,13,24.75.43,3.3.34,7.51-1.34,10.44-4.58,8-13.91,14.67-20.77,20.23a14.09,14.09,0,0,1,4.52,5.05c1.2,2.31.85,3.44,2.83,3.9,2.67.62,6.34-1.05,7.06-1.52,2.08-1.37,1.31-1.46,2.79-3.23A12.21,12.21,0,0,0,89,221.09c.14-.7.9-1.47.88-2.39s-.47-1.78-.23-2.3c.18,0,.9.54,1.07.66,1.1.76,3.59,2.7,4.86,2.94a5.89,5.89,0,0,0,1.68.78c.68.1,1.32,0,2.95,0a22.34,22.34,0,0,1,4.6-.08c1.49.3,1.76,1.5,2.64,2,2.12,1.27,2.83,4.49,4.9,5.79,2.42,1.52,4.73,2.47,6,4.9,1.14,2.13,5.29,4.86,8.17,4.37,2.26-.38,7.63.52,9.76-.37,6.61-2.76,12.9-9.57,11.27-18.23a53.1,53.1,0,0,1-1.17-5.34c-.09-1.14,2.69-.31,2.68-1.4,2.06-.66,2.6-.35,4.32-.32,3.94.07,5.86,3.16,9,5.48,2.79,2,5.61,2.84,7.56,5.62a9.72,9.72,0,0,0,2.78,2.79c3.23,2,7.31-1.67,10.15-2.91,1.94-.85,4.27-7.38,7.11-8.43,3.74-1.38,8.07,2.73,10.76,2,5.55-1.44,6.19-2.94,11.59-4.77,3.29-1.12,6.22,0,9.07-1.92a74.14,74.14,0,0,1,7.83-5.07c4.56-2.4,7.63-6,11.53-9.32,2.18-1.83,5.61-4.16,7.69-6.1a136.12,136.12,0,0,1,14-11.71c1.08-.77,2-2.81,3.07-3.63,1.62-1.27,5.87-3.47,7.11-7.87C272.71,166.29,273.14,161.45,271.15,159.46ZM130.74,133.84a29.38,29.38,0,0,1-3.31,4.23,7.28,7.28,0,0,0-1.34,2,11.43,11.43,0,0,1-1.47,2.41c-.69.83-1.41,1.65-2.12,2.45-1.07,1.21-2.32,2.24-3.36,3.5s-2.22,3-3.86,3.82c-.52.27-1.07.48-1.6.76a11.25,11.25,0,0,1-2.25,1.12,8.18,8.18,0,0,0-1.82.74,9.93,9.93,0,0,1-1.2.74c-.77.31-1.61.18-2.38.46s-1.47.68-2.23,1a23.32,23.32,0,0,1-2.65.66,32.27,32.27,0,0,1-4.13.88c-.48.05-1.27.3-1.57-.16-.08-.13-.27-.83-.37-1a16.6,16.6,0,0,0,3-1.32c.23-.2.49-.5.7-.71a12.24,12.24,0,0,0,1.62-2.3,10.6,10.6,0,0,1,1-1.2,26.05,26.05,0,0,0,1.46-2.43c.88-1.32,2.12-2.29,2.95-3.65.52-.84,1.11-1.62,1.67-2.43s1-1.62,1.49-2.4a10.91,10.91,0,0,1,1.06-1.28c.47-.49.79-1.08,1.23-1.59.82-1,1.75-1.84,2.64-2.75a3.17,3.17,0,0,1,2.18-1.07c1.49-.1,2.93-.68,4.43-.57a9.14,9.14,0,0,0,2.45-.09,8.56,8.56,0,0,1,2-.27,19.44,19.44,0,0,0,4.38-.08C130,133.15,131.38,132.86,130.74,133.84Z"/>
    <path class="cls-2" d="M131.29,231.88c-.26-1.31-1.62-4.91-1.62-6.24,0-1,1.1-4.18,1.33-5.19s1.33-1.64,1.87-2.65c.4-.76,2.34-3.65,3.1-3.65,3.31,0,3.39-2,6.62-2.39a9.78,9.78,0,0,1,3.44.36,13.51,13.51,0,0,1,1.34.73,3.59,3.59,0,0,1,.95.39c1.07.81-.41,3.89-.74,5-.6,2,.34,1.2-.2,4-.61,3.21-1.13,1.52-2,4.57-.34,1.19-3.41,4.46-4,5.53a7.94,7.94,0,0,1-1.39,2.16c-.4.26-.66,1.68-1.09,1.87a6.79,6.79,0,0,1-2.39.9c-.39,0-1.1-1.14-2.2-2.05S131.64,233.57,131.29,231.88Z"/>
    <path class="cls-2" d="M67,221.81c-.53-.6-4.82-3.36-5.19-4.09s-4.35-3.62-5.07-5.61c-1.3-3.58-.26-11.05-1.46-14.72-.52-1.59.1-3.72-.24-5.34a47,47,0,0,1-1.18-6.33,76.76,76.76,0,0,1-.56-8.14,23.08,23.08,0,0,1,.9-6.5,21.17,21.17,0,0,1,2.71-5c1.26-1.85,2.63-4.3,4.8-5.19a5.19,5.19,0,0,1,3.12-.11,14.79,14.79,0,0,1,2.89,1.46,22,22,0,0,0,4.89,1c1,.08,4.06,2.16,5.38,2.68,1.8.71,2.77,2.78,4,4.2,1.94,2.24,5.12,9.12,6.07,10.93.75,1.43,1.84,2.66,2.33,4.18.67,2.05,2.43,2.75,2.45,4.95a11.09,11.09,0,0,1-.27,3.25c-.25.87,1.1,2.79.94,4.7-.18,2.18-1.87,4.36-2.23,5-.45.77-4.59,4.37-5.08,5.7a23.31,23.31,0,0,1-7.08,9.56,17.33,17.33,0,0,1-6.5,3.19C71.79,221.77,68.66,223.73,67,221.81Z"/>
    <path class="cls-3" d="M61.8,160.63a59,59,0,0,0,4.9-3.37c.74-.58,1.47-1.16,2.24-1.71a21.31,21.31,0,0,0,1.93-1.75c.88-.8,1.75-1.6,2.67-2.35.53-.43.95-1.2,1.58-1.47a2.67,2.67,0,0,1,1.09-.11,6.59,6.59,0,0,1,1.09,0,10,10,0,0,1,1.29.39,10,10,0,0,1,2.19.47"/>
    <path class="cls-1" d="M95.08,157.4l0,0C95,157.36,95.06,157.36,95.08,157.4Z"/>
    <g>
      <path class="cls-3" d="M81.79,169.85a58.35,58.35,0,0,1,4.58,7.77c.69,1.5,1.41,3,2.2,4.43,1.6,3,3.71,5.83,3.91,9.32.12,2.16.52,4.38.43,6.55-.1,2.71-1.54,5-3.26,7-.81.93-1.61,1.84-2.36,2.81a32,32,0,0,1-3.55,3.72c-1.35,1.27-2.57,2.65-4,3.82-1,.81-2.11,1.43-3.08,2.26-1.21,1-2.21,2.43-3.63,3.21a13.58,13.58,0,0,1-2,.86c-1.56.56-3.19.85-4.67,0a30.62,30.62,0,0,1-3.51-2.93c-1.9-1.56-3.79-2.83-5.19-4.91a10.52,10.52,0,0,1-1-1.57,13.45,13.45,0,0,1-.62-2.67c-.37-1.84-.48-3.76-.75-5.63a50.89,50.89,0,0,1-.55-7.51c0-3-.16-5.93-.13-8.89,0-2.45.14-4.89.13-7.35a47.62,47.62,0,0,1,.49-9.24c.63-3.19,1.7-6.25,4.16-8.53a5.73,5.73,0,0,1,3.39-1.89,10.36,10.36,0,0,1,2.94.62,29.38,29.38,0,0,1,3.14,1.26,8.69,8.69,0,0,1,2.92,1.61A4.43,4.43,0,0,0,73.6,165C75.07,165.5,77.92,164,81.79,169.85Z"/>
      <path class="cls-3" d="M74.33,150.66a17.57,17.57,0,0,0,1.3-1.89,3.73,3.73,0,0,0,.31-1.19c0-.39,0-.78,0-1.17a1.86,1.86,0,0,1,.76-1.28,2.39,2.39,0,0,1,1-.16,7.82,7.82,0,0,1,1.81.06,10.49,10.49,0,0,0,2.74-.08,14.52,14.52,0,0,1,2.37-.32"/>
      <path class="cls-3" d="M76.24,145.63a11.19,11.19,0,0,0,.81-2.25,9.21,9.21,0,0,0,.33-1.56c.14-1.13.39-2.24.54-3.37a3.77,3.77,0,0,1,.92-2.14,3.9,3.9,0,0,1,1.38-1.07,2.15,2.15,0,0,1,.76-.05,4.92,4.92,0,0,1,.76.09l.73.13,1,.12c1.28.35,1.45,1.92,2.29,2.78a6.33,6.33,0,0,0,1.18.81,17.5,17.5,0,0,1,1.56,1c.36.28.69.59,1.07.85.56.4,1.21.59,1.78,1"/>
      <path class="cls-3" d="M80.32,135.21a41.42,41.42,0,0,1-.84-4.39,4,4,0,0,1,0-2.24c.14-.27.33-.31.57-.46a2.43,2.43,0,0,0,.64-.6,14.11,14.11,0,0,0,1.26-2,23,23,0,0,0,1.4-3.5,35.24,35.24,0,0,0,1.34-4,24.26,24.26,0,0,1,1.77-5.85A21.21,21.21,0,0,1,88.62,109a27,27,0,0,1,3.22-3.28A23.9,23.9,0,0,0,94,103.3c.75-.84,1.5-1.66,2.2-2.54.57-.71,1.15-1.39,1.68-2.12a7.82,7.82,0,0,1,1.22-1.47,2.37,2.37,0,0,1,1.38-.73,4,4,0,0,1,1.23.25,7.43,7.43,0,0,1,2.81.79,8.32,8.32,0,0,1,1.28,1.37,24.84,24.84,0,0,1,1.74,2.1,10.75,10.75,0,0,0,1.07,1.44c.17.18.39.31.55.5a3.56,3.56,0,0,1,.65.9"/>
      <path class="cls-3" d="M102.38,96.82a24.8,24.8,0,0,0,3.52-3.19,15,15,0,0,0,1.34-1.82c.41-.66.73-1.36,1.1-2a21.75,21.75,0,0,1,1.55-2.24A28,28,0,0,0,113.53,81a32.62,32.62,0,0,1,2.84-5.78c.55-.87,1.26-1.62,1.87-2.44A23.24,23.24,0,0,1,120,70.56c.72-.77,2.34-2.08,3.51-1.56.83.38,1.11,1.32,1.71,1.92.83.83,2,.15,2.89-.14a21.22,21.22,0,0,1,3.05-.75,12.88,12.88,0,0,1,3,0,18.66,18.66,0,0,0,2.59,0,18.52,18.52,0,0,1,3.07.13c.75.08,1.34.44,2.07.58a3.43,3.43,0,0,1,.85.14,2.63,2.63,0,0,1,.53.4c.17.14.36.23.41.46s-.23.78-.36,1.08c-.38.81-.7,1.63-1.16,2.41s-1.06,1.69-1.54,2.58c-.64,1.19-1.14,2.44-1.75,3.64s-1.73,2.39-2,3.77a24.75,24.75,0,0,0-.3,3.66,9.81,9.81,0,0,0,.24,3.5c.2.68.46,1.34.67,2a9.44,9.44,0,0,0,.74,2.09c.44.74.91,1.44,1.33,2.19s1.29.92,1.45,1.68"/>
      <path class="cls-3" d="M143.4,71.9a40.19,40.19,0,0,1,7.18-.73,10.55,10.55,0,0,0,2.51-.2,12.62,12.62,0,0,0,1.33-.39,6.43,6.43,0,0,1,1.54-.49c.52,0,.78.35.63.85s-.79.84-1.15,1.16a6.21,6.21,0,0,0-1.92,2.64,13.45,13.45,0,0,0-.63,3.38"/>
      <path class="cls-3" d="M156.45,70.24a11.11,11.11,0,0,0,2.61-2.51c.29-.43.56-.87.82-1.32.74-1.22,1.48-2.43,2.17-3.68.46-.82.82-1.68,1.26-2.51a1.78,1.78,0,0,1,1.21-.92c1.45-.39,2.93-.48,4.37-.94A58.82,58.82,0,0,1,175,56.7c2.28-.47,4.6-.38,6.89-.75,1.2-.19,2.38-.28,3.59-.37a20,20,0,0,1,4.22-.28,6.82,6.82,0,0,1,3.11,1.78,20.25,20.25,0,0,1,3,3.26c.67.85,1.17,1.82,1.77,2.72s1.42,2,2.19,3c1.56,2,3.07,4.1,4.68,6.09"/>
      <path class="cls-3" d="M191.85,56.31a11.13,11.13,0,0,0,3.44-.74,16,16,0,0,1,1.78-.57,17.11,17.11,0,0,1,3.67-.76c2.09-.09,3.49,1.56,5.15,2.54a10,10,0,0,0,2.58,1c1,.26,2,.63,3,.88s1.93.18,2.88.35c.36.06.72.17,1.07.21a5.53,5.53,0,0,1,1.22.09c1.08.36,1.25,1.43,1.26,2.44,0,1.28-.14,2.63,0,3.9a3.65,3.65,0,0,0,2,2.75c.42.2.91.16,1.34.34A3.54,3.54,0,0,1,223,70.36a15.37,15.37,0,0,1,1,3,9.13,9.13,0,0,0,1,2,16.76,16.76,0,0,0,1.8,2.63A21.44,21.44,0,0,1,229,80.53a18.75,18.75,0,0,1,2.55,4.77,9.59,9.59,0,0,1,.39,2.19,11.42,11.42,0,0,1-.77,3.59,16,16,0,0,1-2.29,4.32c-1.09,1.53-2.23,3-3.33,4.57-1.78,2.51-3.68,5-5.39,7.53a45.34,45.34,0,0,1-2.42,4,7,7,0,0,1-1.82,1.93,7.81,7.81,0,0,1-1.28.47c-.64.21-1.22.58-1.87.75a8.45,8.45,0,0,1-2.13.12c-.35,0-.9.18-1.2,0s-.14-.46-.09-.76a2.35,2.35,0,0,1,.17-.51,19.08,19.08,0,0,0,.59-2.34,23,23,0,0,0,0-6.47c-.16-1.76-.35-3.52-.6-5.27A28.84,28.84,0,0,0,208,93.57c-.84-2.33-1.66-5-3.2-7"/>
      <path class="cls-3" d="M155.59,142a5.34,5.34,0,0,1,1.81.75c.3.24.54.65.84.91a8,8,0,0,0,2.44,1.13,7,7,0,0,0,1.42.43,9.72,9.72,0,0,1,2.15.33,5.71,5.71,0,0,0,1,.42,10.34,10.34,0,0,1,1.1.14c.17,0,.3.16.46.2s.19,0,.27,0a1.38,1.38,0,0,1,.34.12c.22.08.45.11.67.19s.3.17.47.23a.9.9,0,0,0,.46,0,2.06,2.06,0,0,1,.74.08c.33.1.48.4.66.67a5.12,5.12,0,0,0,.34.44,9.08,9.08,0,0,0,.57.81,7,7,0,0,0,3.55,2.16,6.7,6.7,0,0,0,2.32,0,14,14,0,0,0,3.62-.87c.93-.45,1.8-1,2.69-1.56,1.07-.63,2.2-1.13,3.25-1.8a15.25,15.25,0,0,0,2.56-2A13.27,13.27,0,0,0,191,142.5c.34-.54.59-1.13.89-1.7a25.6,25.6,0,0,1,1.58-2.54,10.6,10.6,0,0,1,2.31-2.6,3.4,3.4,0,0,1,1.76-.91c.56,0,.94.49,1.23.92a9.5,9.5,0,0,0,1.12,1.41,15.85,15.85,0,0,1,1.56,1.91,15,15,0,0,0,1.8,2.32c.29.27.84.68.77,1.15"/>
      <path class="cls-3" d="M198.12,134.91a2.79,2.79,0,0,1,1-.39,2.49,2.49,0,0,0,.61,0c.37,0,.74-.11,1.11-.16,1-.14,2.07,0,3.09-.25a25.55,25.55,0,0,0,4.73-1.59c.7-.29,1.38-.62,2.1-.84s1.48-.34,2.22-.51a15.38,15.38,0,0,0,4.69-1.44,18,18,0,0,0,1.78-1.47,6.8,6.8,0,0,1,1.71-1,12.18,12.18,0,0,1,5.36-.67,17.94,17.94,0,0,1,1.93.28,10,10,0,0,0,2.78.15c1.38,0,2.77-.2,4.15-.19,1.11,0,2.22.12,3.33.14a15,15,0,0,1,2.84.1c1.09.21,2.16.4,3.26.52,1.44.14,2.6,1,4,1.47a18.38,18.38,0,0,1,1.84.48,3.76,3.76,0,0,1,.88.71c.65.53,1.53.75,2.23,1.22,1,.69,2.15,1.2,3.23,1.8a16.31,16.31,0,0,1,3.23,2.63,6.9,6.9,0,0,1,1.27,1.54c.4.72.63,1.52,1,2.23a6.22,6.22,0,0,1,.8,1.45,3.72,3.72,0,0,1-.18,2.06,9.48,9.48,0,0,0-.77,2.86,1.78,1.78,0,0,0,.32,1,5.82,5.82,0,0,1,.58,1.41c.21.68.45,1.38.69,2a12.26,12.26,0,0,1,.67,3.6,15.56,15.56,0,0,1-.11,2.05c0,.12-.1.67.06.77"/>
      <path class="cls-3" d="M257,144.83c.62,1.33,1.23,2.66,1.77,4a13,13,0,0,0,1.7,3.37,21.61,21.61,0,0,1,2,2.44,4.29,4.29,0,0,0,1.26,1.76c.34.21.75.28,1.1.48.1.07.17.16.27.22a1.45,1.45,0,0,0,.35.12c.23.08.39.27.63.36a3,3,0,0,0,.95.05,3.44,3.44,0,0,1,1.58.31l.75.35a4.91,4.91,0,0,1,.91.66c.58.44,1.35.56,1.8,1.16a5.47,5.47,0,0,1,.93,2.94,8,8,0,0,1-.2,2.92c-.51,1.92-2,3.33-3.32,4.72a26.7,26.7,0,0,0-3.32,3.32,31.64,31.64,0,0,1-2.13,2.79,2.57,2.57,0,0,1-1,.69c-.47.22-.89.5-1.35.73a2.11,2.11,0,0,1-1.1.27,2.29,2.29,0,0,1-1-.06c-.58-.35-.7-1.45-.75-2a30,30,0,0,1-.19-3,2.7,2.7,0,0,0-.46-1.82,9.11,9.11,0,0,0-1.88-2,4.6,4.6,0,0,1-1.68-2.09,4.44,4.44,0,0,1-.13-2.08"/>
      <path class="cls-3" d="M260.81,178.54a2.19,2.19,0,0,0-1.42.35,6.63,6.63,0,0,0-.57.61,4.26,4.26,0,0,0-.67.85,9.38,9.38,0,0,1-.87,1.46,19.12,19.12,0,0,1-2,2.28c-.61.57-1.29,1-1.93,1.58s-1.41,1.2-2.13,1.79a25.48,25.48,0,0,0-2.7,2,21.06,21.06,0,0,1-2.92,2.66c-1.59,1.13-3.24,2.22-4.77,3.44a50.24,50.24,0,0,0-4.82,4.52,20.17,20.17,0,0,1-3.94,3.33c-.64.39-1.33.69-2,1-1.19.62-2.28,1.44-3.43,2.13s-2.26,1.32-3.34,2.07c-.8.54-1.56,1.19-2.4,1.66a8.46,8.46,0,0,1-2.19.86c-.89.19-1.81.26-2.71.44a26.51,26.51,0,0,0-4.15.93c-.62.24-1.25.45-1.85.74s-1.17.49-1.72.8a17.64,17.64,0,0,1-2.79,1.46,13.75,13.75,0,0,0-1.32.48,3,3,0,0,1-1.39.37,7.19,7.19,0,0,0-1.31.14c-.26.05-.59.11-.77-.14a1.47,1.47,0,0,1-.14-.92,15.48,15.48,0,0,1,.59-2.12,21.34,21.34,0,0,0,.5-3.56c.14-1.67.34-3.34.51-5"/>
      <path class="cls-3" d="M123.68,220.5a19.71,19.71,0,0,1,1-3.49c.1-.25.2-.49.29-.75s.08-.53.38-.54.84.2,1.26.19a6.79,6.79,0,0,0,1.35-.22,9.09,9.09,0,0,1,2.27-.26,11.74,11.74,0,0,0,3.69-.68c.54-.18,1.11-.63,1.69-.62.14,0,.17.2.34,0"/>
      <path class="cls-3" d="M147.93,212.8a17.16,17.16,0,0,1,4.76-1.15,11.68,11.68,0,0,1,3.07.13,2.59,2.59,0,0,1,1.42.89c.16.19.31.46.55.55a2.46,2.46,0,0,0,.27-1.29c-.05-.61-.29-1.22-.35-1.84s-.09-1.52-.11-2.27a12.82,12.82,0,0,1,.34-4.58c.22-.65.48-1.28.69-1.94a3.26,3.26,0,0,0,.24-1.07"/>
      <path class="cls-3" d="M157.8,213.27a4.88,4.88,0,0,1,.89,1.44,1.92,1.92,0,0,0,.4.87,5.16,5.16,0,0,0,1.56,1.26c1,.54,1.83,1.14,2.82,1.63a22.7,22.7,0,0,0,3.31,1.56,7.55,7.55,0,0,1,3.11,1.68c.64.64,1,1.47,1.67,2.09a7.35,7.35,0,0,0,2.41,1.28,16.62,16.62,0,0,0,3.1.88,3.66,3.66,0,0,0,1.74,0,5,5,0,0,0,1.33-.79,16.52,16.52,0,0,0,3.36-2.87,7,7,0,0,0,1.11-1.95,5.27,5.27,0,0,1,.64-1.25,5.53,5.53,0,0,1,1.15-1.35c.33-.24.5-.31.67-.69a5.43,5.43,0,0,0,.45-1.22,2.26,2.26,0,0,0-.18-1,25,25,0,0,1-.63-2.85c-.21-1.17-.19-2.39-.45-3.54a9,9,0,0,1-.43-1.91c0-1.09.72-2.09.91-3.16a17.27,17.27,0,0,0,0-4.25,17.48,17.48,0,0,0-.88-4.53"/>
      <path class="cls-3" d="M187.32,216.6a4.13,4.13,0,0,1,.9-1.09,4.84,4.84,0,0,1,1.05-.68,1.92,1.92,0,0,1,.75-.18c.39,0,.78-.06,1.16-.07a21,21,0,0,1,3,.3c.52.1,1,.21,1.55.33s.91.32,1.38.46a7.7,7.7,0,0,1,.94.26,3.72,3.72,0,0,0,.88.26,3,3,0,0,1,.52.13,1.52,1.52,0,0,1,.33.18,1.27,1.27,0,0,0,.48.06c.16,0,.31.1.48.12s.63,0,.62-.12"/>
      <path class="cls-3" d="M136.16,237.24c-.53.34-1.3,1.06-1.94,1.12-.21,0-.43,0-.64,0l-1.86.14a11.57,11.57,0,0,1-3-.35,27,27,0,0,1-2.79-.56,15.53,15.53,0,0,1-3.59-1.45,26,26,0,0,1-3.4-2.21c-.82-.69-1.38-1.62-2.23-2.28-.53-.41-1.11-.73-1.66-1.11s-1.19-.94-1.78-1.41a8.38,8.38,0,0,0-1.24-.83,8.64,8.64,0,0,1-1.47-.79c-.88-.72-.94-1.89-1.59-2.75a24.14,24.14,0,0,1-1.54-2.07,23.83,23.83,0,0,0-1.62-2,10.14,10.14,0,0,1-1.45-6c.06-1.23.34-2.46.44-3.7,0-.49.09-1,.13-1.48a6.4,6.4,0,0,1,.12-1.37"/>
      <path class="cls-3" d="M105.68,220.86a10.52,10.52,0,0,0-3.24-.4c-.41,0-.82.07-1.23.14a16.78,16.78,0,0,1-2.33.26,4,4,0,0,1-2.37-.29,4.94,4.94,0,0,0-.93-.57c-.31-.1-.63-.16-.94-.27a6.22,6.22,0,0,1-1.93-1.12c-.37-.29-.79-.54-1.14-.85a10.87,10.87,0,0,0-.91-.74,3.94,3.94,0,0,0-.88-.61c-.31-.08-.6.16-.91,0"/>
      <path class="cls-3" d="M136.31,237.39A16.63,16.63,0,0,0,134,235a7.2,7.2,0,0,1-1.23-1,9.71,9.71,0,0,1-1.83-3c-.36-1-.66-2-.92-3.09a8,8,0,0,1-.33-2.28,4.18,4.18,0,0,1,.75-1.84c.37-.69.71-1.43,1-2.14s.49-1.51.79-2.25c.21-.54.45-1.06.63-1.61.38-1.18.76-2.67,1.88-3.32a1.61,1.61,0,0,1,1.16-.32,1.35,1.35,0,0,0,1.17-.1c.5-.26.94-.61,1.42-.9a7.1,7.1,0,0,1,1.77-.82c.52-.14,1.06-.29,1.59-.4a9.62,9.62,0,0,1,2.91-.42,10.14,10.14,0,0,1,1.69.56c.58.18,1.35.22,1.75.73a3,3,0,0,1,.53,2.67,17,17,0,0,0-1.05,2,9.57,9.57,0,0,0-.09,2.45,12.28,12.28,0,0,1-.22,2.26,10.3,10.3,0,0,1-.93,2.46,16.84,16.84,0,0,1-1.09,2.11,15.37,15.37,0,0,0-.88,1.52,7.9,7.9,0,0,1-1.57,2c-.46.49-.83,1.06-1.25,1.58a15.11,15.11,0,0,0-1.71,2.57c-.19.37-.33.73-.56,1.09a3.94,3.94,0,0,1-1,.94,5.08,5.08,0,0,1-1.49.65C136.75,237.21,135.86,237.68,136.31,237.39Z"/>
      <path class="cls-3" d="M69,222.22c1.32.61,2.18.92,2.93,2.11.28.45.61.86.89,1.3.63,1,1.16,2.06,1.69,3.1.44.87.89,2.26,2,2.46a12,12,0,0,0,2.54,0,6.15,6.15,0,0,0,2.39-.52c.36-.15.71-.32,1.06-.48a9,9,0,0,0,1-.36,2.86,2.86,0,0,0,.65-.74,13.07,13.07,0,0,1,1-1.11,15.85,15.85,0,0,0,2-2.42,9.4,9.4,0,0,0,1.3-2c.23-.62.26-1.29.49-1.92s.68-1.16.92-1.78a3.15,3.15,0,0,0,0-1.4,10.34,10.34,0,0,0-.3-1.09,6.64,6.64,0,0,1-.05-.89c-.1-1.58-2.2-.32-3.08-.55l0-.05"/>
      <path class="cls-3" d="M209.29,114.56a16.18,16.18,0,0,0-3.4,2.19,15,15,0,0,1-1.48,1.27,17.46,17.46,0,0,1-2.54,1.64,5.47,5.47,0,0,1-2,.8,5.34,5.34,0,0,0-1.72.32c-1.68.69-3.18,1.78-4.89,2.39-.4.15-1.6.7-1.79,0a1.44,1.44,0,0,1,.12-.68,10.26,10.26,0,0,0,.33-1.65,16,16,0,0,0-.34-7.14,48.07,48.07,0,0,0-1.66-4.77,28.32,28.32,0,0,0-2.49-4.59,5.5,5.5,0,0,0-3-2.81h.22"/>
      <path class="cls-3" d="M191.46,123.25c-1.38,1.51-2.85,2.92-3.54,4.88a8.08,8.08,0,0,0-.6,2.51c0,1,.2,2.1-.53,2.92a3.87,3.87,0,0,1-2,1,11.44,11.44,0,0,1-2.19.07,8.16,8.16,0,0,0-1.62.2c-1.17.22-2.39.23-3.54.48l-1.51.33a1.42,1.42,0,0,1-.58,0c-.19-.1-.13-.21-.16-.41a6.6,6.6,0,0,0-.28-1.32,14.15,14.15,0,0,0-1.74-3,11.58,11.58,0,0,0-2.84-3.12c-1.5-1.15-3.12-2.11-4.72-3.11a7.65,7.65,0,0,0-1.34-.75c-.15-.06-.29-.08-.36-.19"/>
      <path class="cls-3" d="M175.4,134.93a56.82,56.82,0,0,0-4.08,5.48,3.65,3.65,0,0,0-.46,1.21c-.31,1-1.25,1.63-1.83,2.49a3.66,3.66,0,0,0-.54.88c-.05.18,0,.4-.1.59-.13.5-.1.7-.62.71"/>
      <path class="cls-3" d="M129.09,136.21c.3-.43,2.37-3.6,3.39-4a9,9,0,0,0,.89-.41c.83-.43,1.63-.92,2.44-1.38a5.46,5.46,0,0,0,2.18-2,25.55,25.55,0,0,0,1-2.43,12.61,12.61,0,0,1,1-2.26,5.35,5.35,0,0,1,2-1.63,17.16,17.16,0,0,1,2.4-.86l2.42-.85a25.46,25.46,0,0,0,3.18-1.69"/>
      <path class="cls-3" d="M141.08,122.49a35.39,35.39,0,0,0,2.51-6.35,17.37,17.37,0,0,0,.29-4.26,40,40,0,0,1-.13-4.51,8.62,8.62,0,0,0,.2-1.83c0-.48-.46-.52-.79-.82a7.78,7.78,0,0,1-1.55-2.37,5.1,5.1,0,0,1-.6-1.8,2.33,2.33,0,0,1,.31-1.64c1-1.46,2-2.83,3-4.29,1.7-2.58,3.38-5.16,4.82-7.9"/>
      <path class="cls-3" d="M92.81,157.24c.71.37,1.9.29,2.66.58,1.27.49,2.14,1.17,3.47.49s2.21-1.5,3.56-1.78a20.25,20.25,0,0,0,3.16-.78c1.31-.5,2.69-.62,4-1.16a14.15,14.15,0,0,1,3.29-1.45,6.58,6.58,0,0,1,3.46.75,8.89,8.89,0,0,1,2.7,2.38c.63.67,1.42,1.2,2,1.88"/>
      <path class="cls-3" d="M113.66,153.1a15,15,0,0,0,3.83-2.55c.3-.38.61-.75.94-1.11.53-.6,1.07-1.19,1.64-1.75a24.2,24.2,0,0,1,2.74-2.42,9.93,9.93,0,0,0,2.29-2.7,7.34,7.34,0,0,0,1.51-2.85,5,5,0,0,1,1.64-2.87,7.12,7.12,0,0,1,1.92-1.22c1.59-.76,3.16-1.57,4.71-2.41"/>
      <path class="cls-3" d="M95.62,157.82c1.74-1.57,3.46-3.13,5.12-4.78a17.58,17.58,0,0,0,2.2-2.52,4.38,4.38,0,0,0,1.07-2.38c-.05-.79-.46-.4-1-.68-.37-.19-.44-.57-.54-.93a7,7,0,0,0-.73-1.63,23.57,23.57,0,0,1-2.14-5,15.3,15.3,0,0,1-.76-4.65"/>
      <path class="cls-3" d="M104,148.69a28.27,28.27,0,0,1,2.8-5.51,19.55,19.55,0,0,1,1.88-2.29,28.65,28.65,0,0,1,3.66-2.68,9.85,9.85,0,0,0,2.78-3.61c.72-1.5-.25-2.78-.73-4.19-.35-1-.71-2-1.14-3-.32-.7-1-2.82.06-3.17"/>
      <path class="cls-3" d="M114.93,134.89c.23-.34.61-1.1,1.11-1.09a1.4,1.4,0,0,1,.5.16,2.12,2.12,0,0,0,.75.18,13.09,13.09,0,0,0,2.85-.31,26.75,26.75,0,0,1,3.88-.6,9.54,9.54,0,0,1,1.85.06c.54.08,1.08.21,1.62.29l1.35.15c.31,0,.62,0,.93,0s.95-.09,1,.1"/>
    </g>
  </g>
</svg>
