<?xml version="1.0" encoding="utf-8"?>
<!-- Generator: Adobe Adobe Illustrator 24.2.0, SVG Export Plug-In . SVG Version: 6.00 Build 0)  -->
<svg version="1.1" id="Layer_1" xmlns="http://www.w3.org/2000/svg" xmlns:xlink="http://www.w3.org/1999/xlink" x="0px" y="0px"
	 width="300px" height="300px" viewBox="0 0 300 300" style="enable-background:new 0 0 300 300;" xml:space="preserve">
<style type="text/css">
	.st0{fill:#FCE9C4;}
	.st1{fill:#FCDD9C;}
	.st2{fill:none;stroke:#000000;stroke-width:0.3;stroke-miterlimit:10;}
	.st3{fill:#758C58;}
	.st4{fill:#E8DE9F;}
	.st5{opacity:0.3294;fill:#BDCC7B;}
	.st6{fill:#886154;}
	.st7{fill:#EBA66B;}
	.st8{fill:#B6BBDE;}
	.st9{fill:#96AD78;}
	.st10{fill:#BA996E;}
	.st11{fill:none;stroke:#000000;stroke-width:0.2;stroke-miterlimit:10;}
	.st12{fill:#6E7D5B;}
	.st13{opacity:0.6706;}
	.st14{fill:#8EAD65;}
	.st15{fill:#B04646;}
	.st16{fill:#85986C;}
	.st17{fill:#AE8E67;}
	.st18{fill:#FFFFFF;stroke:#000000;stroke-width:0.3;stroke-miterlimit:10;}
</style>
<path class="st2" d="M143.12,74c5.93-19.11,23.4-34.11,43.18-37.09s40.89,6.22,52.18,22.74c13.61,19.91,12.13,47.28,1.84,69.09
	c-10.29,21.82-28.09,39.09-46.35,54.85s-37.55,30.73-52.24,49.85c-8.48-17.49-23.9-30.52-39.55-42.05
	c-15.65-11.53-32.21-22.35-44.54-37.38c-13.46-16.39-21.19-37.4-21.56-58.61c-0.27-15.2,3.49-31.06,13.52-42.48
	c7.48-8.52,18.05-14.04,29.13-16.44c13.97-3.02,29.09-1.14,41.52,5.91s21.93,19.38,24.84,33.38c4.88-18.16,20.45-33.01,38.82-37.02
	s38.72,2.99,50.73,17.45c15.57,18.75,15.84,46.76,6.42,69.24c-9.42,22.48-26.96,40.48-44.98,56.89s-37.12,32.09-51.14,52.03
	c-10.16-20-33.07-29.14-51.8-41.49c-20.99-13.84-38.39-33.77-46.8-57.47s-7.18-51.17,5.57-72.84c7.5-12.75,19.77-23.7,34.47-25.4
	c12.08-1.39,24.2,3.66,33.75,11.18s16.97,17.37,24.26,27.1c9.41-20.01,29.94-34.88,52.04-35.6c22.1-0.72,44.38,13.89,50.75,35.06
	c3.92,13.01,1.96,27.25-2.97,39.91s-12.67,24.02-20.57,35.07c-22.47,31.44-47.39,62.09-79.81,83.13
	c-18.03-17.94-40.46-30.86-59.22-48.03C69,170.7,55.91,153.26,48.61,133.36s-8.51-42.35-1.29-62.27
	C52,58.13,60.79,45.95,73.51,40.62c13.03-5.45,28.36-2.87,40.8,3.81S136.77,61.48,143.12,74z"/>
</svg>
