<?xml version="1.0" encoding="utf-8"?>
<!-- Generator: Adobe Adobe Illustrator 24.2.0, SVG Export Plug-In . SVG Version: 6.00 Build 0)  -->
<svg version="1.1" id="Layer_1" xmlns="http://www.w3.org/2000/svg" xmlns:xlink="http://www.w3.org/1999/xlink" x="0px" y="0px"
	 width="300px" height="300px" viewBox="0 0 300 300" style="enable-background:new 0 0 300 300;" xml:space="preserve">
<style type="text/css">
	.st0{fill:#FCE9C4;}
	.st1{fill:#FCDD9C;}
	.st2{fill:none;stroke:#000000;stroke-width:0.3;stroke-miterlimit:10;}
	.st3{fill:#758C58;}
	.st4{fill:#E8DE9F;}
	.st5{opacity:0.3294;fill:#BDCC7B;}
	.st6{fill:#886154;}
	.st7{fill:#EBA66B;}
	.st8{fill:#B6BBDE;}
	.st9{fill:#96AD78;}
	.st10{fill:#BA996E;}
	.st11{fill:none;stroke:#000000;stroke-width:0.2;stroke-miterlimit:10;}
	.st12{fill:#6E7D5B;}
	.st13{opacity:0.6706;}
	.st14{fill:#8EAD65;}
	.st15{fill:#B04646;}
	.st16{fill:#85986C;}
	.st17{fill:#AE8E67;}
	.st18{fill:#FFFFFF;stroke:#000000;stroke-width:0.3;stroke-miterlimit:10;}
</style>
<circle class="st18" cx="147.17" cy="157.79" r="97.48"/>
<path class="st2" d="M55.93,195.06c-11.94-30.85-7.66-67.48,11.08-94.74s51.39-44.39,84.47-44.3c15.92,0.04,32.07,3.99,45.25,12.91
	c19.49,13.19,30.54,35.56,38.89,57.56c7.03,18.53,12.84,38.35,9.93,57.95c-5.01,33.68-35.78,59.32-68.95,67.04
	c-23.91,5.57-49.58,3.34-72.17-6.27c-19.68-8.37-37.43-22.87-46.11-42.41c-8.11-18.26-7.71-39.21-4.34-58.9
	c5.4-31.56,19.66-63.69,46.94-80.44c25.89-15.91,60.38-14.85,87-0.2s45.42,41.53,53.5,70.82c7.89,28.64,5.6,61.12-11.24,85.59
	c-20.18,29.33-59.41,42.7-94.32,35.73C100.93,248.44,67.45,224.85,55.93,195.06z"/>
</svg>
