<?xml version="1.0" encoding="utf-8"?>
<!-- Generator: Adobe Adobe Illustrator 24.2.0, SVG Export Plug-In . SVG Version: 6.00 Build 0)  -->
<svg version="1.1" id="Layer_1" xmlns="http://www.w3.org/2000/svg" xmlns:xlink="http://www.w3.org/1999/xlink" x="0px" y="0px"
	 width="300px" height="300px" viewBox="0 0 300 300" style="enable-background:new 0 0 300 300;" xml:space="preserve">
<style type="text/css">
	.st0{fill:#FCE9C4;}
	.st1{fill:#FCDD9C;}
	.st2{fill:none;stroke:#000000;stroke-width:0.3;stroke-miterlimit:10;}
	.st3{fill:#758C58;}
	.st4{fill:#E8DE9F;}
	.st5{opacity:0.3294;fill:#BDCC7B;}
	.st6{fill:#886154;}
	.st7{fill:#EBA66B;}
	.st8{fill:#B6BBDE;}
	.st9{fill:#96AD78;}
	.st10{fill:#BA996E;}
	.st11{fill:none;stroke:#000000;stroke-width:0.2;stroke-miterlimit:10;}
	.st12{fill:#6E7D5B;}
	.st13{opacity:0.6706;}
	.st14{fill:#8EAD65;}
	.st15{fill:#B04646;}
	.st16{fill:#85986C;}
	.st17{fill:#AE8E67;}
	.st18{fill:#FFFFFF;stroke:#000000;stroke-width:0.3;stroke-miterlimit:10;}
</style>
<rect x="50.05" y="50.1" class="st18" width="199.91" height="199.91"/>
<path class="st18" d="M50.41,250.49c0.88-67.06,1.76-134.12,6.13-200.74c64.21-4.01,128.57-5.59,191.64-7.53
	c-1.95,68.08-0.43,136.27,4.1,201.47C185.48,248.58,118.51,251.21,50.41,250.49z"/>
<path class="st2" d="M53.69,246.95c-2.53-63.75-0.01-128.5-7.3-188.5c64.9-10.72,133.75-9.44,199.97-22.03
	c1.76,67.82-3.52,136.5,7.26,203.46C186.32,250.04,121.7,243.94,53.69,246.95z"/>
</svg>
